# xmcd
#
# Track frame offsets: 
#        150
#        24189
#        50890
#        70879
#        96395
#        124389
#        140960
#        161644
#
# Disc length: 2567 seconds
#
# Revision: 0
# Processed by: cddbd v1.5.2PL0 Copyright (c) Steve Scherf et al.
# Submitted via: ExactAudioCopy v0.95a5
#
DISCID=7a0a0508
DTITLE=Chris Russell's Chicken Walk - Shakedown
DYEAR=1900
DGENRE=Blues
TTITLE0=Somebody Call The ) Po'Po'
TTITLE1=Pretty Little Girl
TTITLE2=Someday My Sun Gonna Shine
TTITLE3=Mississippi River
TTITLE4=Caltfish Blues
TTITLE5=Down In Tennessee
TTITLE6=Long Haired Doney
TTITLE7=Bad Motherfucker
EXTD=
EXTT0=
EXTT1=
EXTT2=
EXTT3=
EXTT4=
EXTT5=
EXTT6=
EXTT7=
PLAYORDER=
